<svg width="195" height="81" viewBox="0 0 195 81" fill="none" xmlns="http://www.w3.org/2000/svg">
<path d="M35.6562 56H26.4141V52.2266C25.3203 53.7214 23.9987 54.8334 22.4492 55.5625C20.918 56.2735 19.2318 56.6289 17.3906 56.6289C14.9844 56.6289 12.8333 56.2006 10.9375 55.3438C9.04167 54.487 7.4375 53.3203 6.125 51.8438C4.8125 50.349 3.8099 48.599 3.11719 46.5938C2.42448 44.5886 2.07812 42.4375 2.07812 40.1407C2.07812 37.8438 2.42448 35.6927 3.11719 33.6875C3.8099 31.6823 4.8125 29.9414 6.125 28.4649C7.4375 26.9701 9.04167 25.7943 10.9375 24.9375C12.8333 24.0808 14.9844 23.6524 17.3906 23.6524C18.612 23.6524 19.7695 23.8347 20.8633 24.1992C21.9753 24.5638 22.987 25.0834 23.8984 25.7578C24.8281 26.4141 25.6393 27.2162 26.332 28.1641C27.043 29.0938 27.599 30.1328 28 31.2813L32.1016 24.418H35.6562V56ZM26.3594 40.1407C26.3594 39.3203 26.3138 38.4545 26.2227 37.543C26.1497 36.6315 26.013 35.7292 25.8125 34.836C25.612 33.9427 25.3294 33.0951 24.9648 32.293C24.6185 31.4727 24.1628 30.7526 23.5977 30.1328C23.0508 29.4948 22.3854 28.9935 21.6016 28.6289C20.8177 28.2644 19.9062 28.0821 18.8672 28.0821C17.8281 28.0821 16.9258 28.2735 16.1602 28.6563C15.3945 29.0209 14.7383 29.5222 14.1914 30.1602C13.6445 30.78 13.1888 31.5 12.8242 32.3203C12.4779 33.1407 12.2044 33.9974 12.0039 34.8907C11.8034 35.7839 11.6576 36.6862 11.5664 37.5977C11.4935 38.4909 11.457 39.3386 11.457 40.1407C11.457 40.9427 11.4935 41.7995 11.5664 42.711C11.6576 43.6224 11.8034 44.5248 12.0039 45.418C12.2044 46.3112 12.4779 47.168 12.8242 47.9883C13.1888 48.8086 13.6445 49.5378 14.1914 50.1758C14.7383 50.7956 15.3945 51.2969 16.1602 51.6797C16.9258 52.0443 17.8281 52.2266 18.8672 52.2266C19.8151 52.2266 20.6536 52.0352 21.3828 51.6524C22.1302 51.2513 22.7773 50.7227 23.3242 50.0664C23.8893 49.4102 24.3633 48.6628 24.7461 47.8242C25.1289 46.9857 25.4388 46.1198 25.6758 45.2266C25.9128 44.3334 26.0859 43.4492 26.1953 42.5742C26.3047 41.681 26.3594 40.8698 26.3594 40.1407ZM53.1016 16.7891C53.1016 17.4818 52.9648 18.1381 52.6914 18.7578C52.4362 19.3776 52.0807 19.9154 51.625 20.3711C51.1693 20.8269 50.6315 21.1914 50.0117 21.4649C49.3919 21.7201 48.7357 21.8477 48.043 21.8477C47.3503 21.8477 46.694 21.7201 46.0742 21.4649C45.4727 21.1914 44.944 20.8269 44.4883 20.3711C44.0326 19.9154 43.668 19.3776 43.3945 18.7578C43.1393 18.1381 43.0117 17.4818 43.0117 16.7891C43.0117 16.0964 43.1393 15.4492 43.3945 14.8477C43.668 14.2279 44.0326 13.6901 44.4883 13.2344C44.944 12.7787 45.4727 12.4232 46.0742 12.168C46.694 11.8946 47.3503 11.7578 48.043 11.7578C48.7357 11.7578 49.3919 11.8946 50.0117 12.168C50.6315 12.4232 51.1693 12.7787 51.625 13.2344C52.0807 13.6901 52.4362 14.2279 52.6914 14.8477C52.9648 15.4492 53.1016 16.0964 53.1016 16.7891ZM52.6914 56H43.4219V24.4453H52.6914V56ZM87.3086 27.2071L82.1133 35.8203C81.8945 35.0912 81.612 34.2709 81.2656 33.3594C80.9193 32.4479 80.4909 31.6003 79.9805 30.8164C79.4701 30.0144 78.8594 29.349 78.1484 28.8203C77.4375 28.2735 76.6172 28 75.6875 28C74.8307 28 74.0833 28.2188 73.4453 28.6563C72.8255 29.0938 72.2969 29.668 71.8594 30.3789C71.4219 31.0716 71.0573 31.8646 70.7656 32.7578C70.4922 33.6328 70.2734 34.5261 70.1094 35.4375C69.9635 36.3308 69.8633 37.1966 69.8086 38.0352C69.7539 38.8555 69.7266 39.5664 69.7266 40.168V56H60.457V24.418H64.0117L67.7578 31.7735C68.2682 30.5886 68.8516 29.5039 69.5078 28.5196C70.1641 27.517 70.9206 26.6602 71.7773 25.9492C72.6341 25.2201 73.6003 24.655 74.6758 24.2539C75.7695 23.8529 77 23.6524 78.3672 23.6524C79.0781 23.6524 79.8711 23.7162 80.7461 23.8438C81.6211 23.9532 82.4779 24.1537 83.3164 24.4453C84.1549 24.7188 84.9297 25.0834 85.6406 25.5391C86.3516 25.9948 86.9076 26.5508 87.3086 27.2071Z" fill="black"/>
<path d="M192.035 45.9102C192.035 47.2956 191.835 48.526 191.434 49.6016C191.033 50.6771 190.486 51.6159 189.793 52.418C189.1 53.2018 188.28 53.8672 187.332 54.4141C186.384 54.9427 185.363 55.3711 184.27 55.6992C183.194 56.0273 182.064 56.2643 180.879 56.4102C179.694 56.556 178.518 56.6289 177.352 56.6289C175.784 56.6289 174.398 56.5286 173.195 56.3281C171.992 56.1276 170.844 55.8086 169.75 55.3711C168.656 54.9154 167.562 54.332 166.469 53.6211C165.393 52.9102 164.19 52.0443 162.859 51.0234L168.246 46.6211C168.738 47.5508 169.385 48.3984 170.188 49.1641C171.008 49.9115 171.855 50.5586 172.73 51.1055C173.605 51.6523 174.453 52.0716 175.273 52.3633C176.094 52.6549 176.759 52.8008 177.27 52.8008C177.689 52.8008 178.163 52.7917 178.691 52.7734C179.22 52.737 179.758 52.6823 180.305 52.6094C180.852 52.5182 181.389 52.3906 181.918 52.2266C182.447 52.0625 182.911 51.8438 183.312 51.5703C183.732 51.2786 184.06 50.9232 184.297 50.5039C184.552 50.0664 184.68 49.5469 184.68 48.9453C184.68 48.3255 184.516 47.7878 184.188 47.332C183.878 46.8581 183.467 46.4479 182.957 46.1016C182.447 45.7552 181.863 45.4635 181.207 45.2266C180.551 44.9896 179.885 44.7799 179.211 44.5977C178.555 44.4154 177.917 44.2604 177.297 44.1328C176.677 43.987 176.139 43.8503 175.684 43.7227C174.845 43.4857 173.961 43.2487 173.031 43.0117C172.102 42.7565 171.181 42.474 170.27 42.1641C169.358 41.8359 168.483 41.4531 167.645 41.0156C166.824 40.5781 166.095 40.0586 165.457 39.457C164.837 38.8372 164.336 38.1172 163.953 37.2969C163.589 36.4583 163.406 35.4831 163.406 34.3711C163.406 32.3294 163.807 30.625 164.609 29.2578C165.43 27.8724 166.505 26.7695 167.836 25.9492C169.167 25.1107 170.68 24.5182 172.375 24.1719C174.07 23.8255 175.793 23.6523 177.543 23.6523C178.746 23.6523 180.013 23.7799 181.344 24.0352C182.674 24.2721 183.969 24.6367 185.227 25.1289C186.484 25.6029 187.66 26.1862 188.754 26.8789C189.848 27.5716 190.759 28.3646 191.488 29.2578L186.102 33.6875C185.701 32.5938 185.172 31.6549 184.516 30.8711C183.878 30.0872 183.176 29.4492 182.41 28.957C181.663 28.4466 180.888 28.0729 180.086 27.8359C179.302 27.599 178.573 27.4805 177.898 27.4805C177.242 27.4805 176.504 27.5078 175.684 27.5625C174.863 27.6172 174.089 27.7721 173.359 28.0273C172.648 28.2826 172.038 28.6745 171.527 29.2031C171.035 29.7135 170.789 30.4245 170.789 31.3359C170.789 31.9922 170.935 32.5573 171.227 33.0312C171.536 33.487 171.938 33.888 172.43 34.2344C172.922 34.5625 173.478 34.8451 174.098 35.082C174.736 35.3008 175.383 35.5013 176.039 35.6836C176.695 35.8477 177.333 35.9935 177.953 36.1211C178.573 36.2487 179.129 36.3854 179.621 36.5312C180.46 36.7682 181.344 37.0143 182.273 37.2695C183.221 37.5065 184.151 37.7891 185.062 38.1172C185.974 38.4271 186.849 38.8008 187.688 39.2383C188.544 39.6576 189.292 40.1771 189.93 40.7969C190.568 41.4167 191.078 42.1458 191.461 42.9844C191.844 43.8047 192.035 44.7799 192.035 45.9102Z" fill="black"/>
<path d="M142.215 40.1407C142.215 41.7813 141.996 43.3216 141.559 44.7617C141.121 46.2019 140.51 47.5326 139.727 48.7539C138.961 49.9753 138.031 51.0782 136.938 52.0625C135.844 53.0287 134.641 53.849 133.328 54.5235C132.034 55.1979 130.639 55.7175 129.145 56.0821C127.668 56.4466 126.146 56.6289 124.578 56.6289C123.01 56.6289 121.488 56.4466 120.012 56.0821C118.535 55.7175 117.141 55.1979 115.828 54.5235C114.534 53.849 113.34 53.0287 112.246 52.0625C111.152 51.0782 110.214 49.9753 109.43 48.7539C108.664 47.5326 108.062 46.2019 107.625 44.7617C107.188 43.3034 106.969 41.7631 106.969 40.1407C106.969 38.5183 107.188 36.987 107.625 35.5469C108.062 34.0886 108.664 32.7487 109.43 31.5274C110.214 30.306 111.152 29.2123 112.246 28.2461C113.34 27.2617 114.534 26.4323 115.828 25.7578C117.141 25.0834 118.535 24.5638 120.012 24.1992C121.488 23.8347 123.01 23.6524 124.578 23.6524C126.146 23.6524 127.668 23.8347 129.145 24.1992C130.639 24.5638 132.034 25.0834 133.328 25.7578C134.641 26.4323 135.844 27.2617 136.938 28.2461C138.031 29.2123 138.961 30.306 139.727 31.5274C140.51 32.7487 141.121 34.0886 141.559 35.5469C141.996 36.987 142.215 38.5183 142.215 40.1407ZM132.809 40.1407C132.809 39.2657 132.754 38.3451 132.645 37.3789C132.553 36.3946 132.389 35.4375 132.152 34.5078C131.915 33.5599 131.587 32.6576 131.168 31.8008C130.767 30.9258 130.266 30.1693 129.664 29.5313C129.062 28.875 128.342 28.3555 127.504 27.9727C126.665 27.5716 125.69 27.3711 124.578 27.3711C123.521 27.3711 122.582 27.5716 121.762 27.9727C120.941 28.3737 120.221 28.9115 119.602 29.586C119 30.2422 118.49 31.0078 118.07 31.8828C117.669 32.7578 117.341 33.6693 117.086 34.6172C116.831 35.5469 116.648 36.4948 116.539 37.461C116.43 38.4089 116.375 39.3021 116.375 40.1407C116.375 40.9792 116.43 41.8815 116.539 42.8477C116.648 43.7956 116.831 44.7435 117.086 45.6914C117.341 46.6394 117.669 47.5508 118.07 48.4258C118.49 49.2826 119 50.0482 119.602 50.7227C120.221 51.3789 120.941 51.9076 121.762 52.3086C122.582 52.7097 123.521 52.9102 124.578 52.9102C125.672 52.9102 126.638 52.7188 127.477 52.336C128.315 51.9349 129.035 51.4063 129.637 50.75C130.257 50.0938 130.767 49.3373 131.168 48.4805C131.569 47.6237 131.888 46.7214 132.125 45.7735C132.38 44.8256 132.553 43.8685 132.645 42.9024C132.754 41.9362 132.809 41.0157 132.809 40.1407Z" fill="black"/>
<g filter="url(#filter0_i_23_117)">
<path d="M77.3692 68.7228L92.0428 41.7945C92.3302 44.0536 97.2097 46.2453 98.5768 46.523C99.9439 46.8008 103.34 47.3445 106.066 46.2826C106.618 46.0679 107.146 45.8134 107.648 45.524C111.657 43.2131 114.009 38.6742 113.251 34.3836C113.165 33.8971 113.039 33.4138 112.871 32.9373C111.036 27.7321 107.76 25.5971 106.049 24.6646C105.27 24.24 103.627 23.636 102.103 23.332C100.114 22.9353 97.1019 23.2932 94.7285 24.2191C92.3551 25.1451 89.7687 25.6046 86.5788 31.4585L83.487 37.1324L68.8134 64.0606C67.0958 67.2127 69.5274 68.5378 69.5274 68.5378L73.31 70.599C73.31 70.599 75.946 71.3345 77.3692 68.7228Z" fill="white"/>
</g>
<path d="M96.9358 37.1022C94.9841 37.6725 93.9156 38.7863 92.0428 41.7945M92.0428 41.7945C92.0428 41.7945 78.7924 66.111 77.3692 68.7228M92.0428 41.7945C92.3302 44.0536 97.2097 46.2453 98.5768 46.523C99.9439 46.8008 103.34 47.3445 106.066 46.2826C106.618 46.0679 107.146 45.8134 107.648 45.524M77.3692 68.7228C75.946 71.3345 73.31 70.599 73.31 70.599L69.5274 68.5378C69.5274 68.5378 67.0958 67.2127 68.8134 64.0606M77.3692 68.7228L68.8134 64.0606M68.8134 64.0606C70.5311 60.9085 83.487 37.1324 83.487 37.1324L86.5788 31.4585C89.7687 25.6046 92.3551 25.1451 94.7285 24.2191C97.1019 23.2932 100.114 22.9353 102.103 23.332C103.627 23.636 105.27 24.24 106.049 24.6646C107.76 25.5971 111.036 27.7321 112.871 32.9373C113.039 33.4138 113.165 33.8971 113.251 34.3836M113.251 34.3836C114.009 38.6742 111.657 43.2131 107.648 45.524M113.251 34.3836C109.635 37.9557 108.291 40.3311 107.648 45.524M103.309 28.1937C100.541 27.0115 99.2637 27.3681 97.0631 28.2946" stroke="black" stroke-width="1.6599" stroke-linecap="round"/>
<path d="M172.279 11.4189L157.543 38.3128C157.261 36.0531 152.386 33.85 151.02 33.5691C149.653 33.2882 146.259 32.7365 143.53 33.7921C142.978 34.0055 142.449 34.2587 141.947 34.547C137.932 36.8485 135.569 41.382 136.317 45.6743C136.402 46.161 136.527 46.6446 136.694 47.1214C138.517 52.3309 141.788 54.4736 143.497 55.41C144.275 55.8365 145.916 56.4443 147.439 56.7518C149.428 57.1532 152.441 56.8023 154.816 55.8819C157.192 54.9615 159.779 54.5081 162.983 48.6616L166.088 42.995L180.824 16.101C182.549 12.9529 180.121 11.6222 180.121 11.6222L176.343 9.55219C176.343 9.55219 173.709 8.81045 172.279 11.4189Z" fill="white"/>
<path d="M152.639 42.9938C154.592 42.428 155.663 41.3167 157.543 38.3128M157.543 38.3128C157.543 38.3128 170.85 14.0273 172.279 11.4189M157.543 38.3128C157.261 36.0531 152.386 33.85 151.02 33.5691C149.653 33.2882 146.259 32.7365 143.53 33.7921C142.978 34.0055 142.449 34.2587 141.947 34.547M172.279 11.4189C173.709 8.81045 176.343 9.55219 176.343 9.55219L180.121 11.6222C180.121 11.6222 182.549 12.9529 180.824 16.101M172.279 11.4189L180.824 16.101M180.824 16.101C179.099 19.2491 166.088 42.995 166.088 42.995L162.983 48.6616C159.779 54.5081 157.192 54.9615 154.816 55.8819C152.441 56.8023 149.428 57.1532 147.439 56.7518C145.916 56.4443 144.275 55.8365 143.497 55.41C141.788 54.4736 138.517 52.3309 136.694 47.1214C136.527 46.6446 136.402 46.161 136.317 45.6743M136.317 45.6743C135.569 41.382 137.932 36.8485 141.947 34.547M136.317 45.6743C139.942 42.1106 141.291 39.7384 141.947 34.547M146.245 51.8873C149.01 53.076 150.288 52.7224 152.491 51.8011" stroke="black" stroke-width="1.66" stroke-linecap="round"/>
<defs>
<filter id="filter0_i_23_117" x="67.3695" y="22.3421" width="46.8534" height="50.248" filterUnits="userSpaceOnUse" color-interpolation-filters="sRGB">
<feFlood flood-opacity="0" result="BackgroundImageFix"/>
<feBlend mode="normal" in="SourceGraphic" in2="BackgroundImageFix" result="shape"/>
<feColorMatrix in="SourceAlpha" type="matrix" values="0 0 0 0 0 0 0 0 0 0 0 0 0 0 0 0 0 0 127 0" result="hardAlpha"/>
<feOffset dy="1.06573"/>
<feGaussianBlur stdDeviation="0.532865"/>
<feComposite in2="hardAlpha" operator="arithmetic" k2="-1" k3="1"/>
<feColorMatrix type="matrix" values="0 0 0 0 0 0 0 0 0 0 0 0 0 0 0 0 0 0 0.25 0"/>
<feBlend mode="normal" in2="shape" result="effect1_innerShadow_23_117"/>
</filter>
</defs>
</svg>
